G04 #@! TF.GenerationSoftware,KiCad,Pcbnew,(5.1.2)-1*
G04 #@! TF.CreationDate,2023-09-28T15:07:13+01:00*
G04 #@! TF.ProjectId,RPi_I2C_PWR_PCB00,5250695f-4932-4435-9f50-57525f504342,rev?*
G04 #@! TF.SameCoordinates,Original*
G04 #@! TF.FileFunction,Copper,L1,Top*
G04 #@! TF.FilePolarity,Positive*
%FSLAX46Y46*%
G04 Gerber Fmt 4.6, Leading zero omitted, Abs format (unit mm)*
G04 Created by KiCad (PCBNEW (5.1.2)-1) date 2023-09-28 15:07:13*
%MOMM*%
%LPD*%
G04 APERTURE LIST*
%ADD10O,1.700000X1.700000*%
%ADD11R,1.700000X1.700000*%
%ADD12C,0.750000*%
%ADD13C,0.500000*%
%ADD14C,0.250000*%
G04 APERTURE END LIST*
D10*
X124587000Y-85979000D03*
X124587000Y-83439000D03*
X124587000Y-80899000D03*
X124587000Y-78359000D03*
D11*
X124587000Y-75819000D03*
X127127000Y-75819000D03*
D10*
X127127000Y-78359000D03*
X127127000Y-80899000D03*
X127127000Y-83439000D03*
X127127000Y-85979000D03*
X122047000Y-85979000D03*
X122047000Y-83439000D03*
X122047000Y-80899000D03*
X122047000Y-78359000D03*
D11*
X122047000Y-75819000D03*
X129667000Y-73279000D03*
D10*
X129667000Y-75819000D03*
X129667000Y-78359000D03*
X134747000Y-78359000D03*
X134747000Y-75819000D03*
D11*
X134747000Y-73279000D03*
X129667000Y-80899000D03*
D10*
X129667000Y-83439000D03*
X129667000Y-85979000D03*
X132207000Y-80899000D03*
X132207000Y-83439000D03*
D11*
X132207000Y-85979000D03*
X132207000Y-73279000D03*
D10*
X132207000Y-75819000D03*
X132207000Y-78359000D03*
D12*
X127127000Y-80899000D02*
X124587000Y-80899000D01*
X124587000Y-80899000D02*
X122047000Y-80899000D01*
X129667000Y-78359000D02*
X132207000Y-78359000D01*
X132207000Y-78359000D02*
X134747000Y-78359000D01*
X127127000Y-80899000D02*
X129667000Y-80899000D01*
X129667000Y-78359000D02*
X129667000Y-80899000D01*
X127127000Y-75819000D02*
X124587000Y-75819000D01*
X124587000Y-75819000D02*
X122047000Y-75819000D01*
X129667000Y-73279000D02*
X132207000Y-73279000D01*
X132207000Y-73279000D02*
X134747000Y-73279000D01*
X132207000Y-80899000D02*
X132207000Y-83439000D01*
X127127000Y-74219000D02*
X128067000Y-73279000D01*
X127127000Y-75819000D02*
X127127000Y-74219000D01*
X128067000Y-73279000D02*
X129667000Y-73279000D01*
X135509000Y-80899000D02*
X132207000Y-80899000D01*
D13*
X136144000Y-80264000D02*
X135509000Y-80899000D01*
X136144000Y-73326000D02*
X136144000Y-80264000D01*
X134747000Y-73279000D02*
X136097000Y-73279000D01*
X136097000Y-73279000D02*
X136144000Y-73326000D01*
D14*
X122047000Y-85979000D02*
X124587000Y-85979000D01*
X124587000Y-85979000D02*
X127127000Y-85979000D01*
X129667000Y-85979000D02*
X127127000Y-85979000D01*
X127127000Y-83439000D02*
X124587000Y-83439000D01*
X124587000Y-83439000D02*
X122047000Y-83439000D01*
X127127000Y-83439000D02*
X129667000Y-83439000D01*
M02*
