G04 #@! TF.GenerationSoftware,KiCad,Pcbnew,(5.1.2)-1*
G04 #@! TF.CreationDate,2023-09-28T15:07:13+01:00*
G04 #@! TF.ProjectId,RPi_I2C_PWR_PCB00,5250695f-4932-4435-9f50-57525f504342,rev?*
G04 #@! TF.SameCoordinates,Original*
G04 #@! TF.FileFunction,Legend,Top*
G04 #@! TF.FilePolarity,Positive*
%FSLAX46Y46*%
G04 Gerber Fmt 4.6, Leading zero omitted, Abs format (unit mm)*
G04 Created by KiCad (PCBNEW (5.1.2)-1) date 2023-09-28 15:07:13*
%MOMM*%
%LPD*%
G04 APERTURE LIST*
%ADD10C,0.160000*%
%ADD11C,0.120000*%
%ADD12C,0.150000*%
%ADD13O,1.802000X1.802000*%
%ADD14R,1.802000X1.802000*%
G04 APERTURE END LIST*
D10*
X136621000Y-75285666D02*
X136654333Y-75219000D01*
X136654333Y-75119000D01*
X136621000Y-75019000D01*
X136554333Y-74952333D01*
X136487666Y-74919000D01*
X136354333Y-74885666D01*
X136254333Y-74885666D01*
X136121000Y-74919000D01*
X136054333Y-74952333D01*
X135987666Y-75019000D01*
X135954333Y-75119000D01*
X135954333Y-75185666D01*
X135987666Y-75285666D01*
X136021000Y-75319000D01*
X136254333Y-75319000D01*
X136254333Y-75185666D01*
X135954333Y-75619000D02*
X136654333Y-75619000D01*
X135954333Y-76019000D01*
X136654333Y-76019000D01*
X135954333Y-76352333D02*
X136654333Y-76352333D01*
X136654333Y-76519000D01*
X136621000Y-76619000D01*
X136554333Y-76685666D01*
X136487666Y-76719000D01*
X136354333Y-76752333D01*
X136254333Y-76752333D01*
X136121000Y-76719000D01*
X136054333Y-76685666D01*
X135987666Y-76619000D01*
X135954333Y-76519000D01*
X135954333Y-76352333D01*
X136654333Y-77365333D02*
X136654333Y-77798666D01*
X136387666Y-77565333D01*
X136387666Y-77665333D01*
X136354333Y-77732000D01*
X136321000Y-77765333D01*
X136254333Y-77798666D01*
X136087666Y-77798666D01*
X136021000Y-77765333D01*
X135987666Y-77732000D01*
X135954333Y-77665333D01*
X135954333Y-77465333D01*
X135987666Y-77398666D01*
X136021000Y-77365333D01*
X136654333Y-77998666D02*
X135954333Y-78232000D01*
X136654333Y-78465333D01*
X136654333Y-78632000D02*
X136654333Y-79065333D01*
X136387666Y-78832000D01*
X136387666Y-78932000D01*
X136354333Y-78998666D01*
X136321000Y-79032000D01*
X136254333Y-79065333D01*
X136087666Y-79065333D01*
X136021000Y-79032000D01*
X135987666Y-78998666D01*
X135954333Y-78932000D01*
X135954333Y-78732000D01*
X135987666Y-78665333D01*
X136021000Y-78632000D01*
X136654333Y-73145666D02*
X136654333Y-72812333D01*
X136321000Y-72779000D01*
X136354333Y-72812333D01*
X136387666Y-72879000D01*
X136387666Y-73045666D01*
X136354333Y-73112333D01*
X136321000Y-73145666D01*
X136254333Y-73179000D01*
X136087666Y-73179000D01*
X136021000Y-73145666D01*
X135987666Y-73112333D01*
X135954333Y-73045666D01*
X135954333Y-72879000D01*
X135987666Y-72812333D01*
X136021000Y-72779000D01*
X136654333Y-73379000D02*
X135954333Y-73612333D01*
X136654333Y-73845666D01*
X119731666Y-85272666D02*
X119698333Y-85372666D01*
X119698333Y-85539333D01*
X119731666Y-85606000D01*
X119765000Y-85639333D01*
X119831666Y-85672666D01*
X119898333Y-85672666D01*
X119965000Y-85639333D01*
X119998333Y-85606000D01*
X120031666Y-85539333D01*
X120065000Y-85406000D01*
X120098333Y-85339333D01*
X120131666Y-85306000D01*
X120198333Y-85272666D01*
X120265000Y-85272666D01*
X120331666Y-85306000D01*
X120365000Y-85339333D01*
X120398333Y-85406000D01*
X120398333Y-85572666D01*
X120365000Y-85672666D01*
X119765000Y-86372666D02*
X119731666Y-86339333D01*
X119698333Y-86239333D01*
X119698333Y-86172666D01*
X119731666Y-86072666D01*
X119798333Y-86006000D01*
X119865000Y-85972666D01*
X119998333Y-85939333D01*
X120098333Y-85939333D01*
X120231666Y-85972666D01*
X120298333Y-86006000D01*
X120365000Y-86072666D01*
X120398333Y-86172666D01*
X120398333Y-86239333D01*
X120365000Y-86339333D01*
X120331666Y-86372666D01*
X119698333Y-87006000D02*
X119698333Y-86672666D01*
X120398333Y-86672666D01*
X119731666Y-82716000D02*
X119698333Y-82816000D01*
X119698333Y-82982666D01*
X119731666Y-83049333D01*
X119765000Y-83082666D01*
X119831666Y-83116000D01*
X119898333Y-83116000D01*
X119965000Y-83082666D01*
X119998333Y-83049333D01*
X120031666Y-82982666D01*
X120065000Y-82849333D01*
X120098333Y-82782666D01*
X120131666Y-82749333D01*
X120198333Y-82716000D01*
X120265000Y-82716000D01*
X120331666Y-82749333D01*
X120365000Y-82782666D01*
X120398333Y-82849333D01*
X120398333Y-83016000D01*
X120365000Y-83116000D01*
X119698333Y-83416000D02*
X120398333Y-83416000D01*
X120398333Y-83582666D01*
X120365000Y-83682666D01*
X120298333Y-83749333D01*
X120231666Y-83782666D01*
X120098333Y-83816000D01*
X119998333Y-83816000D01*
X119865000Y-83782666D01*
X119798333Y-83749333D01*
X119731666Y-83682666D01*
X119698333Y-83582666D01*
X119698333Y-83416000D01*
X119898333Y-84082666D02*
X119898333Y-84416000D01*
X119698333Y-84016000D02*
X120398333Y-84249333D01*
X119698333Y-84482666D01*
X120398333Y-80159333D02*
X120398333Y-80592666D01*
X120131666Y-80359333D01*
X120131666Y-80459333D01*
X120098333Y-80526000D01*
X120065000Y-80559333D01*
X119998333Y-80592666D01*
X119831666Y-80592666D01*
X119765000Y-80559333D01*
X119731666Y-80526000D01*
X119698333Y-80459333D01*
X119698333Y-80259333D01*
X119731666Y-80192666D01*
X119765000Y-80159333D01*
X120398333Y-80792666D02*
X119698333Y-81026000D01*
X120398333Y-81259333D01*
X120398333Y-81426000D02*
X120398333Y-81859333D01*
X120131666Y-81626000D01*
X120131666Y-81726000D01*
X120098333Y-81792666D01*
X120065000Y-81826000D01*
X119998333Y-81859333D01*
X119831666Y-81859333D01*
X119765000Y-81826000D01*
X119731666Y-81792666D01*
X119698333Y-81726000D01*
X119698333Y-81526000D01*
X119731666Y-81459333D01*
X119765000Y-81426000D01*
X120365000Y-77698666D02*
X120398333Y-77632000D01*
X120398333Y-77532000D01*
X120365000Y-77432000D01*
X120298333Y-77365333D01*
X120231666Y-77332000D01*
X120098333Y-77298666D01*
X119998333Y-77298666D01*
X119865000Y-77332000D01*
X119798333Y-77365333D01*
X119731666Y-77432000D01*
X119698333Y-77532000D01*
X119698333Y-77598666D01*
X119731666Y-77698666D01*
X119765000Y-77732000D01*
X119998333Y-77732000D01*
X119998333Y-77598666D01*
X119698333Y-78032000D02*
X120398333Y-78032000D01*
X119698333Y-78432000D01*
X120398333Y-78432000D01*
X119698333Y-78765333D02*
X120398333Y-78765333D01*
X120398333Y-78932000D01*
X120365000Y-79032000D01*
X120298333Y-79098666D01*
X120231666Y-79132000D01*
X120098333Y-79165333D01*
X119998333Y-79165333D01*
X119865000Y-79132000D01*
X119798333Y-79098666D01*
X119731666Y-79032000D01*
X119698333Y-78932000D01*
X119698333Y-78765333D01*
X120398333Y-75558666D02*
X120398333Y-75225333D01*
X120065000Y-75192000D01*
X120098333Y-75225333D01*
X120131666Y-75292000D01*
X120131666Y-75458666D01*
X120098333Y-75525333D01*
X120065000Y-75558666D01*
X119998333Y-75592000D01*
X119831666Y-75592000D01*
X119765000Y-75558666D01*
X119731666Y-75525333D01*
X119698333Y-75458666D01*
X119698333Y-75292000D01*
X119731666Y-75225333D01*
X119765000Y-75192000D01*
X120398333Y-75792000D02*
X119698333Y-76025333D01*
X120398333Y-76258666D01*
D11*
X124587000Y-74489000D02*
X125917000Y-74489000D01*
X125917000Y-74489000D02*
X125917000Y-75819000D01*
X125917000Y-77089000D02*
X125917000Y-87309000D01*
X123257000Y-87309000D02*
X125917000Y-87309000D01*
X123257000Y-77089000D02*
X123257000Y-87309000D01*
X123257000Y-77089000D02*
X125917000Y-77089000D01*
X125797000Y-77089000D02*
X128457000Y-77089000D01*
X125797000Y-77089000D02*
X125797000Y-87309000D01*
X125797000Y-87309000D02*
X128457000Y-87309000D01*
X128457000Y-77089000D02*
X128457000Y-87309000D01*
X128457000Y-74489000D02*
X128457000Y-75819000D01*
X127127000Y-74489000D02*
X128457000Y-74489000D01*
X122047000Y-74489000D02*
X123377000Y-74489000D01*
X123377000Y-74489000D02*
X123377000Y-75819000D01*
X123377000Y-77089000D02*
X123377000Y-87309000D01*
X120717000Y-87309000D02*
X123377000Y-87309000D01*
X120717000Y-77089000D02*
X120717000Y-87309000D01*
X120717000Y-77089000D02*
X123377000Y-77089000D01*
X128337000Y-82169000D02*
X130997000Y-82169000D01*
X128337000Y-82169000D02*
X128337000Y-87309000D01*
X128337000Y-87309000D02*
X130997000Y-87309000D01*
X130997000Y-82169000D02*
X130997000Y-87309000D01*
X130997000Y-79569000D02*
X130997000Y-80899000D01*
X129667000Y-79569000D02*
X130997000Y-79569000D01*
X130877000Y-74549000D02*
X133537000Y-74549000D01*
X130877000Y-74549000D02*
X130877000Y-79689000D01*
X130877000Y-79689000D02*
X133537000Y-79689000D01*
X133537000Y-74549000D02*
X133537000Y-79689000D01*
X133537000Y-71949000D02*
X133537000Y-73279000D01*
X132207000Y-71949000D02*
X133537000Y-71949000D01*
D12*
X125075904Y-74282142D02*
X124275904Y-74282142D01*
X124352095Y-74025000D02*
X124314000Y-73996428D01*
X124275904Y-73939285D01*
X124275904Y-73796428D01*
X124314000Y-73739285D01*
X124352095Y-73710714D01*
X124428285Y-73682142D01*
X124504476Y-73682142D01*
X124618761Y-73710714D01*
X125075904Y-74053571D01*
X125075904Y-73682142D01*
X124999714Y-73082142D02*
X125037809Y-73110714D01*
X125075904Y-73196428D01*
X125075904Y-73253571D01*
X125037809Y-73339285D01*
X124961619Y-73396428D01*
X124885428Y-73425000D01*
X124733047Y-73453571D01*
X124618761Y-73453571D01*
X124466380Y-73425000D01*
X124390190Y-73396428D01*
X124314000Y-73339285D01*
X124275904Y-73253571D01*
X124275904Y-73196428D01*
X124314000Y-73110714D01*
X124352095Y-73082142D01*
X124771142Y-72825000D02*
X124771142Y-72367857D01*
X124656857Y-71882142D02*
X124694952Y-71796428D01*
X124733047Y-71767857D01*
X124809238Y-71739285D01*
X124923523Y-71739285D01*
X124999714Y-71767857D01*
X125037809Y-71796428D01*
X125075904Y-71853571D01*
X125075904Y-72082142D01*
X124275904Y-72082142D01*
X124275904Y-71882142D01*
X124314000Y-71825000D01*
X124352095Y-71796428D01*
X124428285Y-71767857D01*
X124504476Y-71767857D01*
X124580666Y-71796428D01*
X124618761Y-71825000D01*
X124656857Y-71882142D01*
X124656857Y-72082142D01*
X127488904Y-74282142D02*
X126688904Y-74282142D01*
X126765095Y-74025000D02*
X126727000Y-73996428D01*
X126688904Y-73939285D01*
X126688904Y-73796428D01*
X126727000Y-73739285D01*
X126765095Y-73710714D01*
X126841285Y-73682142D01*
X126917476Y-73682142D01*
X127031761Y-73710714D01*
X127488904Y-74053571D01*
X127488904Y-73682142D01*
X127412714Y-73082142D02*
X127450809Y-73110714D01*
X127488904Y-73196428D01*
X127488904Y-73253571D01*
X127450809Y-73339285D01*
X127374619Y-73396428D01*
X127298428Y-73425000D01*
X127146047Y-73453571D01*
X127031761Y-73453571D01*
X126879380Y-73425000D01*
X126803190Y-73396428D01*
X126727000Y-73339285D01*
X126688904Y-73253571D01*
X126688904Y-73196428D01*
X126727000Y-73110714D01*
X126765095Y-73082142D01*
X127184142Y-72825000D02*
X127184142Y-72367857D01*
X127412714Y-71739285D02*
X127450809Y-71767857D01*
X127488904Y-71853571D01*
X127488904Y-71910714D01*
X127450809Y-71996428D01*
X127374619Y-72053571D01*
X127298428Y-72082142D01*
X127146047Y-72110714D01*
X127031761Y-72110714D01*
X126879380Y-72082142D01*
X126803190Y-72053571D01*
X126727000Y-71996428D01*
X126688904Y-71910714D01*
X126688904Y-71853571D01*
X126727000Y-71767857D01*
X126765095Y-71739285D01*
X122408904Y-74239285D02*
X121608904Y-74239285D01*
X121685095Y-73982142D02*
X121647000Y-73953571D01*
X121608904Y-73896428D01*
X121608904Y-73753571D01*
X121647000Y-73696428D01*
X121685095Y-73667857D01*
X121761285Y-73639285D01*
X121837476Y-73639285D01*
X121951761Y-73667857D01*
X122408904Y-74010714D01*
X122408904Y-73639285D01*
X122332714Y-73039285D02*
X122370809Y-73067857D01*
X122408904Y-73153571D01*
X122408904Y-73210714D01*
X122370809Y-73296428D01*
X122294619Y-73353571D01*
X122218428Y-73382142D01*
X122066047Y-73410714D01*
X121951761Y-73410714D01*
X121799380Y-73382142D01*
X121723190Y-73353571D01*
X121647000Y-73296428D01*
X121608904Y-73210714D01*
X121608904Y-73153571D01*
X121647000Y-73067857D01*
X121685095Y-73039285D01*
X122104142Y-72782142D02*
X122104142Y-72325000D01*
X122180333Y-72067857D02*
X122180333Y-71782142D01*
X122408904Y-72125000D02*
X121608904Y-71925000D01*
X122408904Y-71725000D01*
%LPC*%
D13*
X124587000Y-85979000D03*
X124587000Y-83439000D03*
X124587000Y-80899000D03*
X124587000Y-78359000D03*
D14*
X124587000Y-75819000D03*
X127127000Y-75819000D03*
D13*
X127127000Y-78359000D03*
X127127000Y-80899000D03*
X127127000Y-83439000D03*
X127127000Y-85979000D03*
X122047000Y-85979000D03*
X122047000Y-83439000D03*
X122047000Y-80899000D03*
X122047000Y-78359000D03*
D14*
X122047000Y-75819000D03*
X129667000Y-73279000D03*
D13*
X129667000Y-75819000D03*
X129667000Y-78359000D03*
X134747000Y-78359000D03*
X134747000Y-75819000D03*
D14*
X134747000Y-73279000D03*
X129667000Y-80899000D03*
D13*
X129667000Y-83439000D03*
X129667000Y-85979000D03*
X132207000Y-80899000D03*
X132207000Y-83439000D03*
D14*
X132207000Y-85979000D03*
X132207000Y-73279000D03*
D13*
X132207000Y-75819000D03*
X132207000Y-78359000D03*
M02*
