M48
; DRILL file {KiCad (5.1.2)-1} date 28/09/2023 15:09:11
; FORMAT={-:-/ absolute / metric / decimal}
; #@! TF.CreationDate,2023-09-28T15:09:11+01:00
; #@! TF.GenerationSoftware,Kicad,Pcbnew,(5.1.2)-1
; #@! TF.FileFunction,Plated,1,2,PTH
FMAT,2
METRIC
T1C1.000
%
G90
G05
T1
X132.207Y-73.279
X132.207Y-75.819
X132.207Y-78.359
X129.667Y-80.899
X129.667Y-83.439
X129.667Y-85.979
X122.047Y-75.819
X122.047Y-78.359
X122.047Y-80.899
X122.047Y-83.439
X122.047Y-85.979
X124.587Y-75.819
X124.587Y-78.359
X124.587Y-80.899
X124.587Y-83.439
X124.587Y-85.979
X129.667Y-73.279
X129.667Y-75.819
X129.667Y-78.359
X134.747Y-73.279
X134.747Y-75.819
X134.747Y-78.359
X127.127Y-75.819
X127.127Y-78.359
X127.127Y-80.899
X127.127Y-83.439
X127.127Y-85.979
X132.207Y-80.899
X132.207Y-83.439
X132.207Y-85.979
T0
M30
